<svg width="1920" height="1920" viewBox="0 0 1920 1920" fill="none" xmlns="http://www.w3.org/2000/svg">
    <circle cx="960" cy="960" r="960" fill="white"/>
    <path fill-rule="evenodd" clip-rule="evenodd" d="M882.442 897.684C904.222 914.626 930.984 923.911 958.579 924.102H961.714C990.825 923.654 1019.94 912.46 1037.4 897.237C1128.77 819.774 1393.45 577.089 1393.45 577.089C1464.22 511.268 1266.71 445.448 961.714 445H958.131C653.137 445.448 455.629 511.268 526.391 577.089C526.391 577.089 791.078 819.774 882.442 897.684ZM1037.4 1028.88C1015.68 1045.98 988.913 1055.42 961.266 1055.74H958.579C930.931 1055.42 904.165 1045.98 882.442 1028.88C819.741 975.147 595.81 773.207 512.06 696.193V813.058C512.06 826.043 516.986 843.058 525.496 851.117L529.762 855.017C593.009 912.818 805.017 1106.57 882.442 1172.61C904.165 1189.71 930.931 1199.16 958.579 1199.47H961.266C990.825 1198.58 1019.49 1187.38 1037.4 1172.61C1116.67 1105.44 1337.02 903.505 1393.9 851.117C1402.86 843.058 1407.34 826.043 1407.34 813.058V696.193C1285.03 808.199 1161.71 919.098 1037.4 1028.88ZM961.266 1330.67C988.861 1330.48 1015.62 1321.19 1037.4 1304.25C1161.72 1194.32 1285.03 1083.27 1407.34 971.117V1088.43C1407.34 1100.97 1402.86 1117.98 1393.9 1126.04C1337.02 1178.88 1116.67 1380.37 1037.4 1447.53C1019.49 1462.76 990.825 1473.95 961.266 1474.4H958.579C930.984 1474.21 904.222 1464.92 882.442 1447.98C809.571 1385.83 617.483 1210.16 542.409 1141.51C535.815 1135.48 530.124 1130.27 525.496 1126.04C516.986 1117.98 512.06 1100.97 512.06 1088.43V971.117C595.81 1047.68 819.741 1250.07 882.442 1303.8C904.165 1320.9 930.931 1330.35 958.579 1330.67H961.266Z" fill="black"/>
</svg>
